<mxfile host="65bd71144e">
    <diagram id="yRTccFjrOhQ1aw37FD4n" name="Archi">
        <mxGraphModel dx="653" dy="382" grid="0" gridSize="10" guides="1" tooltips="1" connect="1" arrows="1" fold="1" page="1" pageScale="1" pageWidth="827" pageHeight="1169" math="0" shadow="0">
            <root>
                <mxCell id="0"/>
                <mxCell id="1" parent="0"/>
                <mxCell id="4" value="Serveur Hetzner" style="rounded=0;whiteSpace=wrap;html=1;" parent="1" vertex="1">
                    <mxGeometry x="126" y="278" width="615" height="60" as="geometry"/>
                </mxCell>
                <mxCell id="5" value="Proxmox" style="rounded=0;whiteSpace=wrap;html=1;" parent="1" vertex="1">
                    <mxGeometry x="127" y="234" width="615" height="27" as="geometry"/>
                </mxCell>
                <mxCell id="45" style="edgeStyle=orthogonalEdgeStyle;html=1;exitX=0.5;exitY=1;exitDx=0;exitDy=0;fontSize=12;" parent="1" source="6" target="42" edge="1">
                    <mxGeometry relative="1" as="geometry">
                        <Array as="points">
                            <mxPoint x="256" y="224"/>
                            <mxPoint x="93" y="224"/>
                        </Array>
                    </mxGeometry>
                </mxCell>
                <mxCell id="6" value="&lt;font style=&quot;font-size: 10px;&quot;&gt;VM - WP&lt;/font&gt;&lt;br&gt;MultiClient" style="rounded=0;whiteSpace=wrap;html=1;" parent="1" vertex="1">
                    <mxGeometry x="225.5" y="159" width="60.5" height="50" as="geometry"/>
                </mxCell>
                <mxCell id="8" value="VM - NC&lt;br&gt;MultiClient" style="rounded=0;whiteSpace=wrap;html=1;" parent="1" vertex="1">
                    <mxGeometry x="303" y="159" width="60.5" height="50" as="geometry"/>
                </mxCell>
                <mxCell id="9" value="VM - MM&lt;br&gt;MultiClient" style="rounded=0;whiteSpace=wrap;html=1;" parent="1" vertex="1">
                    <mxGeometry x="381" y="159" width="60.5" height="50" as="geometry"/>
                </mxCell>
                <mxCell id="10" value="VM&lt;br&gt;UniClient" style="rounded=0;whiteSpace=wrap;html=1;" parent="1" vertex="1">
                    <mxGeometry x="460" y="159" width="60.5" height="50" as="geometry"/>
                </mxCell>
                <mxCell id="14" value="Wordpress" style="rounded=0;whiteSpace=wrap;html=1;fontSize=8;" parent="1" vertex="1">
                    <mxGeometry x="229.75" y="91" width="52" height="14" as="geometry"/>
                </mxCell>
                <mxCell id="15" value="&lt;font style=&quot;font-size: 10px;&quot;&gt;Docker&lt;/font&gt;" style="rounded=0;whiteSpace=wrap;html=1;" parent="1" vertex="1">
                    <mxGeometry x="225.5" y="133" width="60.5" height="19" as="geometry"/>
                </mxCell>
                <mxCell id="16" value="Wordpress" style="rounded=0;whiteSpace=wrap;html=1;fontSize=8;" parent="1" vertex="1">
                    <mxGeometry x="229.75" y="73" width="52" height="14" as="geometry"/>
                </mxCell>
                <mxCell id="17" value="Wordpress" style="rounded=0;whiteSpace=wrap;html=1;fontSize=8;" parent="1" vertex="1">
                    <mxGeometry x="229.75" y="55" width="52" height="14" as="geometry"/>
                </mxCell>
                <mxCell id="18" value="Nextcloud" style="rounded=0;whiteSpace=wrap;html=1;fontSize=8;" parent="1" vertex="1">
                    <mxGeometry x="306.25" y="91" width="52" height="14" as="geometry"/>
                </mxCell>
                <mxCell id="19" value="&lt;font style=&quot;font-size: 10px;&quot;&gt;Docker&lt;/font&gt;" style="rounded=0;whiteSpace=wrap;html=1;" parent="1" vertex="1">
                    <mxGeometry x="302" y="133" width="60.5" height="19" as="geometry"/>
                </mxCell>
                <mxCell id="20" value="Nextcloud" style="rounded=0;whiteSpace=wrap;html=1;fontSize=8;" parent="1" vertex="1">
                    <mxGeometry x="306.25" y="73" width="52" height="14" as="geometry"/>
                </mxCell>
                <mxCell id="21" value="Nextcloud" style="rounded=0;whiteSpace=wrap;html=1;fontSize=8;" parent="1" vertex="1">
                    <mxGeometry x="306.25" y="55" width="52" height="14" as="geometry"/>
                </mxCell>
                <mxCell id="25" value="Mattermost" style="rounded=0;whiteSpace=wrap;html=1;fontSize=8;" parent="1" vertex="1">
                    <mxGeometry x="385" y="91" width="52" height="14" as="geometry"/>
                </mxCell>
                <mxCell id="26" value="Mattermost" style="rounded=0;whiteSpace=wrap;html=1;fontSize=8;" parent="1" vertex="1">
                    <mxGeometry x="385" y="73" width="52" height="14" as="geometry"/>
                </mxCell>
                <mxCell id="27" value="Mattermost" style="rounded=0;whiteSpace=wrap;html=1;fontSize=8;" parent="1" vertex="1">
                    <mxGeometry x="385" y="55" width="52" height="14" as="geometry"/>
                </mxCell>
                <mxCell id="28" value="&lt;font style=&quot;font-size: 10px;&quot;&gt;Docker&lt;/font&gt;" style="rounded=0;whiteSpace=wrap;html=1;" parent="1" vertex="1">
                    <mxGeometry x="381" y="133" width="60.5" height="19" as="geometry"/>
                </mxCell>
                <mxCell id="29" value="&lt;font style=&quot;font-size: 10px;&quot;&gt;Docker&lt;/font&gt;" style="rounded=0;whiteSpace=wrap;html=1;" parent="1" vertex="1">
                    <mxGeometry x="460" y="133" width="60.5" height="19" as="geometry"/>
                </mxCell>
                <mxCell id="30" value="Mattermost" style="rounded=0;whiteSpace=wrap;html=1;fontSize=8;" parent="1" vertex="1">
                    <mxGeometry x="464" y="91" width="52" height="14" as="geometry"/>
                </mxCell>
                <mxCell id="31" value="Nextcloud" style="rounded=0;whiteSpace=wrap;html=1;fontSize=8;" parent="1" vertex="1">
                    <mxGeometry x="464" y="73" width="52" height="14" as="geometry"/>
                </mxCell>
                <mxCell id="32" value="Wordpress" style="rounded=0;whiteSpace=wrap;html=1;fontSize=8;" parent="1" vertex="1">
                    <mxGeometry x="464" y="55" width="52" height="14" as="geometry"/>
                </mxCell>
                <mxCell id="34" style="edgeStyle=none;html=1;exitX=1;exitY=0.5;exitDx=0;exitDy=0;entryX=0;entryY=0.5;entryDx=0;entryDy=0;fontSize=12;" parent="1" source="33" target="6" edge="1">
                    <mxGeometry relative="1" as="geometry"/>
                </mxCell>
                <mxCell id="35" style="edgeStyle=orthogonalEdgeStyle;html=1;exitX=1;exitY=0.25;exitDx=0;exitDy=0;entryX=0;entryY=0.5;entryDx=0;entryDy=0;fontSize=12;" parent="1" source="33" target="15" edge="1">
                    <mxGeometry relative="1" as="geometry"/>
                </mxCell>
                <mxCell id="36" style="edgeStyle=orthogonalEdgeStyle;html=1;exitX=0.992;exitY=0;exitDx=0;exitDy=0;entryX=0;entryY=0.5;entryDx=0;entryDy=0;fontSize=12;exitPerimeter=0;" parent="1" source="33" target="14" edge="1">
                    <mxGeometry relative="1" as="geometry"/>
                </mxCell>
                <mxCell id="37" style="edgeStyle=orthogonalEdgeStyle;html=1;exitX=1;exitY=0;exitDx=0;exitDy=0;entryX=0;entryY=0.5;entryDx=0;entryDy=0;fontSize=12;" parent="1" source="33" target="16" edge="1">
                    <mxGeometry relative="1" as="geometry"/>
                </mxCell>
                <mxCell id="38" style="edgeStyle=orthogonalEdgeStyle;html=1;exitX=1;exitY=0;exitDx=0;exitDy=0;entryX=0;entryY=0.5;entryDx=0;entryDy=0;fontSize=12;" parent="1" source="33" target="17" edge="1">
                    <mxGeometry relative="1" as="geometry"/>
                </mxCell>
                <mxCell id="33" value="&lt;font style=&quot;font-size: 12px;&quot;&gt;VM&lt;br&gt;Monitoring&lt;/font&gt;" style="rounded=0;whiteSpace=wrap;html=1;" parent="1" vertex="1">
                    <mxGeometry x="128" y="159" width="60.5" height="50" as="geometry"/>
                </mxCell>
                <mxCell id="40" value="Serveur Hetzner Backup" style="rounded=0;whiteSpace=wrap;html=1;" parent="1" vertex="1">
                    <mxGeometry x="125" y="592" width="615" height="60" as="geometry"/>
                </mxCell>
                <mxCell id="46" style="edgeStyle=orthogonalEdgeStyle;html=1;exitX=0.5;exitY=1;exitDx=0;exitDy=0;exitPerimeter=0;entryX=0;entryY=0.5;entryDx=0;entryDy=0;fontSize=12;" parent="1" source="42" target="40" edge="1">
                    <mxGeometry relative="1" as="geometry"/>
                </mxCell>
                <mxCell id="42" value="W&lt;br&gt;I&lt;br&gt;R&lt;br&gt;E&lt;br&gt;G&lt;br&gt;U&lt;br&gt;A&lt;br&gt;R&lt;br&gt;D" style="shape=cylinder3;whiteSpace=wrap;html=1;boundedLbl=1;backgroundOutline=1;size=15;fontSize=12;" parent="1" vertex="1">
                    <mxGeometry x="77" y="252" width="32" height="344" as="geometry"/>
                </mxCell>
                <mxCell id="47" value="Wazuh" style="rhombus;whiteSpace=wrap;html=1;fontSize=7;fillColor=#f8cecc;strokeColor=#b85450;" parent="1" vertex="1">
                    <mxGeometry x="502" y="196" width="32.5" height="32" as="geometry"/>
                </mxCell>
                <mxCell id="48" value="Wazuh" style="rhombus;whiteSpace=wrap;html=1;fontSize=7;fillColor=#f8cecc;strokeColor=#b85450;" parent="1" vertex="1">
                    <mxGeometry x="423.5" y="196" width="32.5" height="32" as="geometry"/>
                </mxCell>
                <mxCell id="49" value="Wazuh" style="rhombus;whiteSpace=wrap;html=1;fontSize=7;fillColor=#f8cecc;strokeColor=#b85450;" parent="1" vertex="1">
                    <mxGeometry x="345.5" y="196" width="32.5" height="32" as="geometry"/>
                </mxCell>
                <mxCell id="50" value="Wazuh" style="rhombus;whiteSpace=wrap;html=1;fontSize=7;fillColor=#f8cecc;strokeColor=#b85450;" parent="1" vertex="1">
                    <mxGeometry x="269" y="196" width="32.5" height="32" as="geometry"/>
                </mxCell>
                <mxCell id="51" value="Wazuh" style="rhombus;whiteSpace=wrap;html=1;fontSize=7;fillColor=#f8cecc;strokeColor=#b85450;" parent="1" vertex="1">
                    <mxGeometry x="175" y="196" width="32.5" height="32" as="geometry"/>
                </mxCell>
                <mxCell id="nLFdzkq63lA_EPwDXM-2-51" value="VM&lt;br&gt;OnlyOffice" style="rounded=0;whiteSpace=wrap;html=1;" vertex="1" parent="1">
                    <mxGeometry x="540" y="159" width="60.5" height="50" as="geometry"/>
                </mxCell>
                <mxCell id="nLFdzkq63lA_EPwDXM-2-52" value="Wazuh" style="rhombus;whiteSpace=wrap;html=1;fontSize=7;fillColor=#f8cecc;strokeColor=#b85450;" vertex="1" parent="1">
                    <mxGeometry x="583" y="196" width="32.5" height="32" as="geometry"/>
                </mxCell>
            </root>
        </mxGraphModel>
    </diagram>
    <diagram name="PRA" id="qey3EwU80Xmv-mAf6yJ5">
        <mxGraphModel dx="1372" dy="802" grid="0" gridSize="10" guides="1" tooltips="1" connect="1" arrows="1" fold="1" page="1" pageScale="1" pageWidth="827" pageHeight="1169" math="0" shadow="0">
            <root>
                <mxCell id="priMHp_od7HftMVBScoy-0"/>
                <mxCell id="priMHp_od7HftMVBScoy-1" parent="priMHp_od7HftMVBScoy-0"/>
                <mxCell id="priMHp_od7HftMVBScoy-2" value="Serveur Hetzner" style="rounded=0;whiteSpace=wrap;html=1;" parent="priMHp_od7HftMVBScoy-1" vertex="1">
                    <mxGeometry x="126" y="278" width="615" height="60" as="geometry"/>
                </mxCell>
                <mxCell id="priMHp_od7HftMVBScoy-3" value="Proxmox" style="rounded=0;whiteSpace=wrap;html=1;" parent="priMHp_od7HftMVBScoy-1" vertex="1">
                    <mxGeometry x="127" y="238" width="615" height="27" as="geometry"/>
                </mxCell>
                <mxCell id="priMHp_od7HftMVBScoy-4" style="edgeStyle=orthogonalEdgeStyle;html=1;exitX=0.5;exitY=1;exitDx=0;exitDy=0;fontSize=12;" parent="priMHp_od7HftMVBScoy-1" source="priMHp_od7HftMVBScoy-5" target="priMHp_od7HftMVBScoy-33" edge="1">
                    <mxGeometry relative="1" as="geometry">
                        <Array as="points">
                            <mxPoint x="256" y="224"/>
                            <mxPoint x="93" y="224"/>
                        </Array>
                    </mxGeometry>
                </mxCell>
                <mxCell id="priMHp_od7HftMVBScoy-5" value="&lt;font style=&quot;font-size: 10px;&quot;&gt;VM - WP&lt;/font&gt;&lt;br&gt;MultiClient" style="rounded=0;whiteSpace=wrap;html=1;" parent="priMHp_od7HftMVBScoy-1" vertex="1">
                    <mxGeometry x="225.5" y="159" width="60.5" height="50" as="geometry"/>
                </mxCell>
                <mxCell id="priMHp_od7HftMVBScoy-6" value="VM - NC&lt;br&gt;MultiClient" style="rounded=0;whiteSpace=wrap;html=1;" parent="priMHp_od7HftMVBScoy-1" vertex="1">
                    <mxGeometry x="303" y="159" width="60.5" height="50" as="geometry"/>
                </mxCell>
                <mxCell id="priMHp_od7HftMVBScoy-7" value="VM - MM&lt;br&gt;MultiClient" style="rounded=0;whiteSpace=wrap;html=1;" parent="priMHp_od7HftMVBScoy-1" vertex="1">
                    <mxGeometry x="381" y="159" width="60.5" height="50" as="geometry"/>
                </mxCell>
                <mxCell id="priMHp_od7HftMVBScoy-8" value="VM&lt;br&gt;UniClient" style="rounded=0;whiteSpace=wrap;html=1;" parent="priMHp_od7HftMVBScoy-1" vertex="1">
                    <mxGeometry x="460" y="159" width="60.5" height="50" as="geometry"/>
                </mxCell>
                <mxCell id="priMHp_od7HftMVBScoy-9" value="Wordpress" style="rounded=0;whiteSpace=wrap;html=1;fontSize=8;" parent="priMHp_od7HftMVBScoy-1" vertex="1">
                    <mxGeometry x="229.75" y="91" width="52" height="14" as="geometry"/>
                </mxCell>
                <mxCell id="priMHp_od7HftMVBScoy-10" value="&lt;font style=&quot;font-size: 10px;&quot;&gt;Docker&lt;/font&gt;" style="rounded=0;whiteSpace=wrap;html=1;" parent="priMHp_od7HftMVBScoy-1" vertex="1">
                    <mxGeometry x="225.5" y="133" width="60.5" height="19" as="geometry"/>
                </mxCell>
                <mxCell id="priMHp_od7HftMVBScoy-11" value="Wordpress" style="rounded=0;whiteSpace=wrap;html=1;fontSize=8;" parent="priMHp_od7HftMVBScoy-1" vertex="1">
                    <mxGeometry x="229.75" y="73" width="52" height="14" as="geometry"/>
                </mxCell>
                <mxCell id="priMHp_od7HftMVBScoy-12" value="Wordpress" style="rounded=0;whiteSpace=wrap;html=1;fontSize=8;" parent="priMHp_od7HftMVBScoy-1" vertex="1">
                    <mxGeometry x="229.75" y="55" width="52" height="14" as="geometry"/>
                </mxCell>
                <mxCell id="priMHp_od7HftMVBScoy-13" value="Nextcloud" style="rounded=0;whiteSpace=wrap;html=1;fontSize=8;" parent="priMHp_od7HftMVBScoy-1" vertex="1">
                    <mxGeometry x="306.25" y="91" width="52" height="14" as="geometry"/>
                </mxCell>
                <mxCell id="priMHp_od7HftMVBScoy-14" value="&lt;font style=&quot;font-size: 10px;&quot;&gt;Docker&lt;/font&gt;" style="rounded=0;whiteSpace=wrap;html=1;" parent="priMHp_od7HftMVBScoy-1" vertex="1">
                    <mxGeometry x="302" y="133" width="60.5" height="19" as="geometry"/>
                </mxCell>
                <mxCell id="priMHp_od7HftMVBScoy-15" value="Nextcloud" style="rounded=0;whiteSpace=wrap;html=1;fontSize=8;" parent="priMHp_od7HftMVBScoy-1" vertex="1">
                    <mxGeometry x="306.25" y="73" width="52" height="14" as="geometry"/>
                </mxCell>
                <mxCell id="priMHp_od7HftMVBScoy-16" value="Nextcloud" style="rounded=0;whiteSpace=wrap;html=1;fontSize=8;" parent="priMHp_od7HftMVBScoy-1" vertex="1">
                    <mxGeometry x="306.25" y="55" width="52" height="14" as="geometry"/>
                </mxCell>
                <mxCell id="priMHp_od7HftMVBScoy-17" value="Mattermost" style="rounded=0;whiteSpace=wrap;html=1;fontSize=8;" parent="priMHp_od7HftMVBScoy-1" vertex="1">
                    <mxGeometry x="385" y="91" width="52" height="14" as="geometry"/>
                </mxCell>
                <mxCell id="priMHp_od7HftMVBScoy-18" value="Mattermost" style="rounded=0;whiteSpace=wrap;html=1;fontSize=8;" parent="priMHp_od7HftMVBScoy-1" vertex="1">
                    <mxGeometry x="385" y="73" width="52" height="14" as="geometry"/>
                </mxCell>
                <mxCell id="priMHp_od7HftMVBScoy-19" value="Mattermost" style="rounded=0;whiteSpace=wrap;html=1;fontSize=8;" parent="priMHp_od7HftMVBScoy-1" vertex="1">
                    <mxGeometry x="385" y="55" width="52" height="14" as="geometry"/>
                </mxCell>
                <mxCell id="priMHp_od7HftMVBScoy-20" value="&lt;font style=&quot;font-size: 10px;&quot;&gt;Docker&lt;/font&gt;" style="rounded=0;whiteSpace=wrap;html=1;" parent="priMHp_od7HftMVBScoy-1" vertex="1">
                    <mxGeometry x="381" y="133" width="60.5" height="19" as="geometry"/>
                </mxCell>
                <mxCell id="priMHp_od7HftMVBScoy-21" value="&lt;font style=&quot;font-size: 10px;&quot;&gt;Docker&lt;/font&gt;" style="rounded=0;whiteSpace=wrap;html=1;" parent="priMHp_od7HftMVBScoy-1" vertex="1">
                    <mxGeometry x="460" y="133" width="60.5" height="19" as="geometry"/>
                </mxCell>
                <mxCell id="priMHp_od7HftMVBScoy-22" value="Mattermost" style="rounded=0;whiteSpace=wrap;html=1;fontSize=8;" parent="priMHp_od7HftMVBScoy-1" vertex="1">
                    <mxGeometry x="464" y="91" width="52" height="14" as="geometry"/>
                </mxCell>
                <mxCell id="priMHp_od7HftMVBScoy-23" value="Nextcloud" style="rounded=0;whiteSpace=wrap;html=1;fontSize=8;" parent="priMHp_od7HftMVBScoy-1" vertex="1">
                    <mxGeometry x="464" y="73" width="52" height="14" as="geometry"/>
                </mxCell>
                <mxCell id="priMHp_od7HftMVBScoy-24" value="Wordpress" style="rounded=0;whiteSpace=wrap;html=1;fontSize=8;" parent="priMHp_od7HftMVBScoy-1" vertex="1">
                    <mxGeometry x="464" y="55" width="52" height="14" as="geometry"/>
                </mxCell>
                <mxCell id="priMHp_od7HftMVBScoy-25" style="edgeStyle=none;html=1;exitX=1;exitY=0.5;exitDx=0;exitDy=0;entryX=0;entryY=0.5;entryDx=0;entryDy=0;fontSize=12;" parent="priMHp_od7HftMVBScoy-1" source="priMHp_od7HftMVBScoy-30" target="priMHp_od7HftMVBScoy-5" edge="1">
                    <mxGeometry relative="1" as="geometry"/>
                </mxCell>
                <mxCell id="priMHp_od7HftMVBScoy-26" style="edgeStyle=orthogonalEdgeStyle;html=1;exitX=1;exitY=0.25;exitDx=0;exitDy=0;entryX=0;entryY=0.5;entryDx=0;entryDy=0;fontSize=12;" parent="priMHp_od7HftMVBScoy-1" source="priMHp_od7HftMVBScoy-30" target="priMHp_od7HftMVBScoy-10" edge="1">
                    <mxGeometry relative="1" as="geometry"/>
                </mxCell>
                <mxCell id="priMHp_od7HftMVBScoy-27" style="edgeStyle=orthogonalEdgeStyle;html=1;exitX=0.992;exitY=0;exitDx=0;exitDy=0;entryX=0;entryY=0.5;entryDx=0;entryDy=0;fontSize=12;exitPerimeter=0;" parent="priMHp_od7HftMVBScoy-1" source="priMHp_od7HftMVBScoy-30" target="priMHp_od7HftMVBScoy-9" edge="1">
                    <mxGeometry relative="1" as="geometry"/>
                </mxCell>
                <mxCell id="priMHp_od7HftMVBScoy-28" style="edgeStyle=orthogonalEdgeStyle;html=1;exitX=1;exitY=0;exitDx=0;exitDy=0;entryX=0;entryY=0.5;entryDx=0;entryDy=0;fontSize=12;" parent="priMHp_od7HftMVBScoy-1" source="priMHp_od7HftMVBScoy-30" target="priMHp_od7HftMVBScoy-11" edge="1">
                    <mxGeometry relative="1" as="geometry"/>
                </mxCell>
                <mxCell id="priMHp_od7HftMVBScoy-29" style="edgeStyle=orthogonalEdgeStyle;html=1;exitX=1;exitY=0;exitDx=0;exitDy=0;entryX=0;entryY=0.5;entryDx=0;entryDy=0;fontSize=12;" parent="priMHp_od7HftMVBScoy-1" source="priMHp_od7HftMVBScoy-30" target="priMHp_od7HftMVBScoy-12" edge="1">
                    <mxGeometry relative="1" as="geometry"/>
                </mxCell>
                <mxCell id="priMHp_od7HftMVBScoy-30" value="&lt;font style=&quot;font-size: 12px;&quot;&gt;VM&lt;br&gt;Monitoring&lt;/font&gt;" style="rounded=0;whiteSpace=wrap;html=1;" parent="priMHp_od7HftMVBScoy-1" vertex="1">
                    <mxGeometry x="128" y="159" width="60.5" height="50" as="geometry"/>
                </mxCell>
                <mxCell id="priMHp_od7HftMVBScoy-31" value="Serveur Hetzner Backup" style="rounded=0;whiteSpace=wrap;html=1;" parent="priMHp_od7HftMVBScoy-1" vertex="1">
                    <mxGeometry x="125" y="592" width="615" height="60" as="geometry"/>
                </mxCell>
                <mxCell id="priMHp_od7HftMVBScoy-32" style="edgeStyle=orthogonalEdgeStyle;html=1;exitX=0.5;exitY=1;exitDx=0;exitDy=0;exitPerimeter=0;entryX=0;entryY=0.5;entryDx=0;entryDy=0;fontSize=12;" parent="priMHp_od7HftMVBScoy-1" source="priMHp_od7HftMVBScoy-33" target="priMHp_od7HftMVBScoy-31" edge="1">
                    <mxGeometry relative="1" as="geometry"/>
                </mxCell>
                <mxCell id="priMHp_od7HftMVBScoy-33" value="W&lt;br&gt;I&lt;br&gt;R&lt;br&gt;E&lt;br&gt;G&lt;br&gt;U&lt;br&gt;A&lt;br&gt;R&lt;br&gt;D" style="shape=cylinder3;whiteSpace=wrap;html=1;boundedLbl=1;backgroundOutline=1;size=15;fontSize=12;" parent="priMHp_od7HftMVBScoy-1" vertex="1">
                    <mxGeometry x="77" y="252" width="32" height="344" as="geometry"/>
                </mxCell>
                <mxCell id="priMHp_od7HftMVBScoy-34" value="Wazuh" style="rhombus;whiteSpace=wrap;html=1;fontSize=7;fillColor=#f8cecc;strokeColor=#b85450;" parent="priMHp_od7HftMVBScoy-1" vertex="1">
                    <mxGeometry x="507" y="196" width="32.5" height="32" as="geometry"/>
                </mxCell>
                <mxCell id="priMHp_od7HftMVBScoy-35" value="Wazuh" style="rhombus;whiteSpace=wrap;html=1;fontSize=7;fillColor=#f8cecc;strokeColor=#b85450;" parent="priMHp_od7HftMVBScoy-1" vertex="1">
                    <mxGeometry x="427.5" y="196" width="32.5" height="32" as="geometry"/>
                </mxCell>
                <mxCell id="priMHp_od7HftMVBScoy-36" value="Wazuh" style="rhombus;whiteSpace=wrap;html=1;fontSize=7;fillColor=#f8cecc;strokeColor=#b85450;" parent="priMHp_od7HftMVBScoy-1" vertex="1">
                    <mxGeometry x="352.5" y="196" width="32.5" height="32" as="geometry"/>
                </mxCell>
                <mxCell id="priMHp_od7HftMVBScoy-37" value="Wazuh" style="rhombus;whiteSpace=wrap;html=1;fontSize=7;fillColor=#f8cecc;strokeColor=#b85450;" parent="priMHp_od7HftMVBScoy-1" vertex="1">
                    <mxGeometry x="273" y="196" width="32.5" height="32" as="geometry"/>
                </mxCell>
                <mxCell id="priMHp_od7HftMVBScoy-38" value="Wazuh" style="rhombus;whiteSpace=wrap;html=1;fontSize=7;fillColor=#f8cecc;strokeColor=#b85450;" parent="priMHp_od7HftMVBScoy-1" vertex="1">
                    <mxGeometry x="175" y="196" width="32.5" height="32" as="geometry"/>
                </mxCell>
            </root>
        </mxGraphModel>
    </diagram>
    <diagram id="NRiPVBlewSZxEG_dcaxB" name="WP-Docker">
        <mxGraphModel dx="1372" dy="802" grid="0" gridSize="10" guides="1" tooltips="1" connect="1" arrows="1" fold="1" page="1" pageScale="1" pageWidth="827" pageHeight="1169" math="0" shadow="0">
            <root>
                <mxCell id="0"/>
                <mxCell id="1" parent="0"/>
                <mxCell id="M-QUFC7KHBvMmZ0uHIeW-5" value="" style="rounded=0;whiteSpace=wrap;html=1;fontSize=10;fontColor=#FF0505;" parent="1" vertex="1">
                    <mxGeometry x="239.5" y="157" width="251" height="257" as="geometry"/>
                </mxCell>
                <mxCell id="M-QUFC7KHBvMmZ0uHIeW-1" value="" style="rounded=0;whiteSpace=wrap;html=1;fontSize=10;fontColor=#FF0505;" parent="1" vertex="1">
                    <mxGeometry x="285.04" y="184" width="159.96" height="154" as="geometry"/>
                </mxCell>
                <mxCell id="M-QUFC7KHBvMmZ0uHIeW-2" value="&lt;font color=&quot;#000000&quot; style=&quot;font-size: 12px;&quot;&gt;/var/www/html&lt;br&gt;&lt;/font&gt;" style="rounded=0;whiteSpace=wrap;html=1;fontSize=10;fillColor=#ffe6cc;strokeColor=#d79b00;" parent="1" vertex="1">
                    <mxGeometry x="322.52" y="277" width="85" height="23" as="geometry"/>
                </mxCell>
                <mxCell id="M-QUFC7KHBvMmZ0uHIeW-3" value="&lt;font color=&quot;#000000&quot; style=&quot;font-size: 12px;&quot;&gt;Network&lt;br&gt;&lt;/font&gt;" style="rounded=0;whiteSpace=wrap;html=1;fontSize=10;fontColor=#FF0505;" parent="1" vertex="1">
                    <mxGeometry x="285" y="347" width="160" height="21" as="geometry"/>
                </mxCell>
                <mxCell id="M-QUFC7KHBvMmZ0uHIeW-4" value="&lt;font color=&quot;#000000&quot; style=&quot;font-size: 12px;&quot;&gt;/var/mysql&lt;br&gt;&lt;/font&gt;" style="rounded=0;whiteSpace=wrap;html=1;fontSize=10;fillColor=#ffe6cc;strokeColor=#d79b00;" parent="1" vertex="1">
                    <mxGeometry x="322.52" y="306" width="85" height="23" as="geometry"/>
                </mxCell>
            </root>
        </mxGraphModel>
    </diagram>
    <diagram name="MM Docker" id="zyx5S84TvFUTb1y_NQD1">
        <mxGraphModel dx="1372" dy="802" grid="0" gridSize="10" guides="1" tooltips="1" connect="1" arrows="1" fold="1" page="1" pageScale="1" pageWidth="827" pageHeight="1169" math="0" shadow="0">
            <root>
                <mxCell id="wIKbddI6XDhLd91zpRTn-0"/>
                <mxCell id="wIKbddI6XDhLd91zpRTn-1" parent="wIKbddI6XDhLd91zpRTn-0"/>
                <mxCell id="wIKbddI6XDhLd91zpRTn-2" value="" style="rounded=0;whiteSpace=wrap;html=1;fontSize=10;fontColor=#FF0505;" vertex="1" parent="wIKbddI6XDhLd91zpRTn-1">
                    <mxGeometry x="239.5" y="157" width="251" height="257" as="geometry"/>
                </mxCell>
                <mxCell id="wIKbddI6XDhLd91zpRTn-3" value="" style="rounded=0;whiteSpace=wrap;html=1;fontSize=10;fontColor=#FF0505;" vertex="1" parent="wIKbddI6XDhLd91zpRTn-1">
                    <mxGeometry x="285.04" y="184" width="159.96" height="154" as="geometry"/>
                </mxCell>
                <mxCell id="wIKbddI6XDhLd91zpRTn-4" value="&lt;font color=&quot;#000000&quot; style=&quot;font-size: 12px;&quot;&gt;/var/www/html&lt;br&gt;&lt;/font&gt;" style="rounded=0;whiteSpace=wrap;html=1;fontSize=10;fillColor=#ffe6cc;strokeColor=#d79b00;" vertex="1" parent="wIKbddI6XDhLd91zpRTn-1">
                    <mxGeometry x="322.52" y="277" width="85" height="23" as="geometry"/>
                </mxCell>
                <mxCell id="wIKbddI6XDhLd91zpRTn-5" value="&lt;font color=&quot;#000000&quot; style=&quot;font-size: 12px;&quot;&gt;Network&lt;br&gt;&lt;/font&gt;" style="rounded=0;whiteSpace=wrap;html=1;fontSize=10;fontColor=#FF0505;" vertex="1" parent="wIKbddI6XDhLd91zpRTn-1">
                    <mxGeometry x="285" y="347" width="160" height="21" as="geometry"/>
                </mxCell>
                <mxCell id="wIKbddI6XDhLd91zpRTn-6" value="&lt;font color=&quot;#000000&quot; style=&quot;font-size: 12px;&quot;&gt;/var/mysql&lt;br&gt;&lt;/font&gt;" style="rounded=0;whiteSpace=wrap;html=1;fontSize=10;fillColor=#ffe6cc;strokeColor=#d79b00;" vertex="1" parent="wIKbddI6XDhLd91zpRTn-1">
                    <mxGeometry x="322.52" y="306" width="85" height="23" as="geometry"/>
                </mxCell>
            </root>
        </mxGraphModel>
    </diagram>
    <diagram name="NC Docker" id="UEq9e3-oUttZniK_CWNt">
        <mxGraphModel dx="1372" dy="802" grid="0" gridSize="10" guides="1" tooltips="1" connect="1" arrows="1" fold="1" page="1" pageScale="1" pageWidth="827" pageHeight="1169" math="0" shadow="0">
            <root>
                <mxCell id="oZ_IRVFXto6RGioKABcu-0"/>
                <mxCell id="oZ_IRVFXto6RGioKABcu-1" parent="oZ_IRVFXto6RGioKABcu-0"/>
                <mxCell id="oZ_IRVFXto6RGioKABcu-2" value="" style="rounded=0;whiteSpace=wrap;html=1;fontSize=10;fontColor=#FF0505;" vertex="1" parent="oZ_IRVFXto6RGioKABcu-1">
                    <mxGeometry x="239.5" y="157" width="251" height="257" as="geometry"/>
                </mxCell>
                <mxCell id="oZ_IRVFXto6RGioKABcu-3" value="" style="rounded=0;whiteSpace=wrap;html=1;fontSize=10;fontColor=#FF0505;" vertex="1" parent="oZ_IRVFXto6RGioKABcu-1">
                    <mxGeometry x="285.04" y="184" width="159.96" height="154" as="geometry"/>
                </mxCell>
                <mxCell id="oZ_IRVFXto6RGioKABcu-4" value="&lt;font color=&quot;#000000&quot; style=&quot;font-size: 12px;&quot;&gt;/var/www/html&lt;br&gt;&lt;/font&gt;" style="rounded=0;whiteSpace=wrap;html=1;fontSize=10;fillColor=#ffe6cc;strokeColor=#d79b00;" vertex="1" parent="oZ_IRVFXto6RGioKABcu-1">
                    <mxGeometry x="322.52" y="277" width="85" height="23" as="geometry"/>
                </mxCell>
                <mxCell id="oZ_IRVFXto6RGioKABcu-5" value="&lt;font color=&quot;#000000&quot; style=&quot;font-size: 12px;&quot;&gt;Network&lt;br&gt;&lt;/font&gt;" style="rounded=0;whiteSpace=wrap;html=1;fontSize=10;fontColor=#FF0505;" vertex="1" parent="oZ_IRVFXto6RGioKABcu-1">
                    <mxGeometry x="285" y="347" width="160" height="21" as="geometry"/>
                </mxCell>
                <mxCell id="oZ_IRVFXto6RGioKABcu-6" value="&lt;font color=&quot;#000000&quot; style=&quot;font-size: 12px;&quot;&gt;/var/mysql&lt;br&gt;&lt;/font&gt;" style="rounded=0;whiteSpace=wrap;html=1;fontSize=10;fillColor=#ffe6cc;strokeColor=#d79b00;" vertex="1" parent="oZ_IRVFXto6RGioKABcu-1">
                    <mxGeometry x="322.52" y="306" width="85" height="23" as="geometry"/>
                </mxCell>
            </root>
        </mxGraphModel>
    </diagram>
    <diagram name="Penpot" id="dilYJ0aY5PcRtNn2zHO5">
        <mxGraphModel dx="1372" dy="802" grid="0" gridSize="10" guides="1" tooltips="1" connect="1" arrows="1" fold="1" page="1" pageScale="1" pageWidth="827" pageHeight="1169" math="0" shadow="0">
            <root>
                <mxCell id="cWHuBrbcQGXPNMTI6SCo-0"/>
                <mxCell id="cWHuBrbcQGXPNMTI6SCo-1" parent="cWHuBrbcQGXPNMTI6SCo-0"/>
                <mxCell id="cWHuBrbcQGXPNMTI6SCo-2" value="" style="rounded=0;whiteSpace=wrap;html=1;fontSize=10;fontColor=#FF0505;" vertex="1" parent="cWHuBrbcQGXPNMTI6SCo-1">
                    <mxGeometry x="239.5" y="157" width="251" height="257" as="geometry"/>
                </mxCell>
                <mxCell id="cWHuBrbcQGXPNMTI6SCo-3" value="" style="rounded=0;whiteSpace=wrap;html=1;fontSize=10;fontColor=#FF0505;" vertex="1" parent="cWHuBrbcQGXPNMTI6SCo-1">
                    <mxGeometry x="285.04" y="184" width="159.96" height="154" as="geometry"/>
                </mxCell>
                <mxCell id="cWHuBrbcQGXPNMTI6SCo-4" value="&lt;font color=&quot;#000000&quot; style=&quot;font-size: 12px;&quot;&gt;/var/www/html&lt;br&gt;&lt;/font&gt;" style="rounded=0;whiteSpace=wrap;html=1;fontSize=10;fillColor=#ffe6cc;strokeColor=#d79b00;" vertex="1" parent="cWHuBrbcQGXPNMTI6SCo-1">
                    <mxGeometry x="322.52" y="277" width="85" height="23" as="geometry"/>
                </mxCell>
                <mxCell id="cWHuBrbcQGXPNMTI6SCo-5" value="&lt;font color=&quot;#000000&quot; style=&quot;font-size: 12px;&quot;&gt;Network&lt;br&gt;&lt;/font&gt;" style="rounded=0;whiteSpace=wrap;html=1;fontSize=10;fontColor=#FF0505;" vertex="1" parent="cWHuBrbcQGXPNMTI6SCo-1">
                    <mxGeometry x="285" y="347" width="160" height="21" as="geometry"/>
                </mxCell>
                <mxCell id="cWHuBrbcQGXPNMTI6SCo-6" value="&lt;font color=&quot;#000000&quot; style=&quot;font-size: 12px;&quot;&gt;/var/mysql&lt;br&gt;&lt;/font&gt;" style="rounded=0;whiteSpace=wrap;html=1;fontSize=10;fillColor=#ffe6cc;strokeColor=#d79b00;" vertex="1" parent="cWHuBrbcQGXPNMTI6SCo-1">
                    <mxGeometry x="322.52" y="306" width="85" height="23" as="geometry"/>
                </mxCell>
            </root>
        </mxGraphModel>
    </diagram>
    <diagram name="OnlyOffice" id="Emv1agp_1oFywOjZWTkm">
        <mxGraphModel dx="1372" dy="802" grid="0" gridSize="10" guides="1" tooltips="1" connect="1" arrows="1" fold="1" page="1" pageScale="1" pageWidth="827" pageHeight="1169" math="0" shadow="0">
            <root>
                <mxCell id="vOuSsjpc1_ppQFhJdFtJ-0"/>
                <mxCell id="vOuSsjpc1_ppQFhJdFtJ-1" parent="vOuSsjpc1_ppQFhJdFtJ-0"/>
                <mxCell id="vOuSsjpc1_ppQFhJdFtJ-2" value="" style="rounded=0;whiteSpace=wrap;html=1;fontSize=10;fontColor=#FF0505;" vertex="1" parent="vOuSsjpc1_ppQFhJdFtJ-1">
                    <mxGeometry x="239.5" y="157" width="251" height="257" as="geometry"/>
                </mxCell>
                <mxCell id="vOuSsjpc1_ppQFhJdFtJ-3" value="" style="rounded=0;whiteSpace=wrap;html=1;fontSize=10;fontColor=#FF0505;" vertex="1" parent="vOuSsjpc1_ppQFhJdFtJ-1">
                    <mxGeometry x="285.04" y="184" width="159.96" height="154" as="geometry"/>
                </mxCell>
                <mxCell id="vOuSsjpc1_ppQFhJdFtJ-4" value="&lt;font color=&quot;#000000&quot; style=&quot;font-size: 12px;&quot;&gt;/var/www/html&lt;br&gt;&lt;/font&gt;" style="rounded=0;whiteSpace=wrap;html=1;fontSize=10;fillColor=#ffe6cc;strokeColor=#d79b00;" vertex="1" parent="vOuSsjpc1_ppQFhJdFtJ-1">
                    <mxGeometry x="322.52" y="277" width="85" height="23" as="geometry"/>
                </mxCell>
                <mxCell id="vOuSsjpc1_ppQFhJdFtJ-5" value="&lt;font color=&quot;#000000&quot; style=&quot;font-size: 12px;&quot;&gt;Network&lt;br&gt;&lt;/font&gt;" style="rounded=0;whiteSpace=wrap;html=1;fontSize=10;fontColor=#FF0505;" vertex="1" parent="vOuSsjpc1_ppQFhJdFtJ-1">
                    <mxGeometry x="285" y="347" width="160" height="21" as="geometry"/>
                </mxCell>
                <mxCell id="vOuSsjpc1_ppQFhJdFtJ-6" value="&lt;font color=&quot;#000000&quot; style=&quot;font-size: 12px;&quot;&gt;/var/mysql&lt;br&gt;&lt;/font&gt;" style="rounded=0;whiteSpace=wrap;html=1;fontSize=10;fillColor=#ffe6cc;strokeColor=#d79b00;" vertex="1" parent="vOuSsjpc1_ppQFhJdFtJ-1">
                    <mxGeometry x="322.52" y="306" width="85" height="23" as="geometry"/>
                </mxCell>
            </root>
        </mxGraphModel>
    </diagram>
</mxfile>